<svg width="208.496" height="79.932" viewBox="0 0 208.496 79.932" xmlns="http://www.w3.org/2000/svg"><g id="svgGroup" stroke-linecap="round" fill-rule="evenodd" font-size="9pt" stroke="#000" stroke-width="0.25mm" fill="#000" style="stroke:#000;stroke-width:0.25mm;fill:#000"><path d="M 17.676 79.395 L 0 28.272 L 11.865 28.272 L 25.195 71.192 L 38.525 28.272 L 50.342 28.272 L 32.617 79.395 L 17.676 79.395 Z" id="0" vector-effect="non-scaling-stroke"/><path d="M 60.645 66.992 L 60.645 28.272 L 72.314 28.272 L 72.314 71.045 L 82.764 71.045 A 9.04 9.04 0 0 1 81.86 74.292 A 9.799 9.799 0 0 1 80.339 76.555 A 9.079 9.079 0 0 1 79.956 76.953 A 8.967 8.967 0 0 1 77.344 78.736 A 7.413 7.413 0 0 1 74.268 79.395 L 69.971 79.395 A 7.173 7.173 0 0 1 66.357 78.418 A 9.708 9.708 0 0 1 63.621 76.067 A 11.23 11.23 0 0 1 63.379 75.757 A 12.711 12.711 0 0 1 61.831 73.045 A 15.301 15.301 0 0 1 61.377 71.826 A 15.062 15.062 0 0 1 60.675 68.03 A 17.587 17.587 0 0 1 60.645 66.992 Z M 66.357 16.455 Q 64.648 16.455 63.159 15.821 A 8.208 8.208 0 0 1 60.547 14.063 A 8.208 8.208 0 0 1 58.789 11.45 Q 58.154 9.961 58.154 8.252 Q 58.154 6.543 58.789 5.054 A 8.208 8.208 0 0 1 60.547 2.442 Q 61.67 1.319 63.159 0.659 A 7.812 7.812 0 0 1 66.357 0 A 7.812 7.812 0 0 1 69.556 0.659 A 8.554 8.554 0 0 1 72.168 2.442 Q 73.291 3.565 73.95 5.054 A 7.812 7.812 0 0 1 74.609 8.252 A 7.812 7.812 0 0 1 73.95 11.45 A 8.554 8.554 0 0 1 72.168 14.063 Q 71.045 15.186 69.531 15.821 A 8.125 8.125 0 0 1 66.357 16.455 Z" id="1" vector-effect="non-scaling-stroke"/><path d="M 92.578 66.992 L 92.578 35.791 L 88.672 35.791 L 88.672 28.272 L 92.578 28.272 L 92.578 14.697 L 104.248 8.887 L 104.248 28.272 L 117.383 28.272 L 117.383 35.791 L 104.248 35.791 L 104.248 71.045 L 121.729 71.045 A 9.828 9.828 0 0 1 120.776 74.292 A 9.43 9.43 0 0 1 118.993 76.811 A 8.975 8.975 0 0 1 118.848 76.953 A 9.304 9.304 0 0 1 116.211 78.736 A 7.413 7.413 0 0 1 113.135 79.395 L 101.855 79.395 A 7.173 7.173 0 0 1 98.242 78.418 Q 96.533 77.442 95.288 75.757 Q 94.043 74.072 93.311 71.826 A 15.062 15.062 0 0 1 92.608 68.03 A 17.587 17.587 0 0 1 92.578 66.992 Z" id="2" vector-effect="non-scaling-stroke"/><path d="M 128.467 66.992 L 128.467 40.674 A 16.158 16.158 0 0 1 128.829 37.204 A 14.234 14.234 0 0 1 129.199 35.84 A 14.744 14.744 0 0 1 130.282 33.311 A 12.353 12.353 0 0 1 131.177 31.909 A 9.712 9.712 0 0 1 133.503 29.642 A 9.13 9.13 0 0 1 134.131 29.248 A 7.173 7.173 0 0 1 137.744 28.272 L 163.672 28.272 A 7.042 7.042 0 0 1 167.261 29.248 A 9.746 9.746 0 0 1 169.85 31.45 A 11.393 11.393 0 0 1 170.215 31.909 A 12.711 12.711 0 0 1 171.762 34.621 A 15.301 15.301 0 0 1 172.217 35.84 A 15.062 15.062 0 0 1 172.919 39.637 A 17.587 17.587 0 0 1 172.949 40.674 L 172.949 56.934 L 140.137 56.934 L 140.137 71.045 L 175.977 71.045 A 9.828 9.828 0 0 1 175.024 74.292 A 9.799 9.799 0 0 1 173.503 76.555 A 9.079 9.079 0 0 1 173.12 76.953 A 8.967 8.967 0 0 1 170.508 78.736 A 7.413 7.413 0 0 1 167.432 79.395 L 137.744 79.395 A 7.173 7.173 0 0 1 134.131 78.418 Q 132.422 77.442 131.177 75.757 Q 129.932 74.072 129.199 71.826 A 15.062 15.062 0 0 1 128.497 68.03 A 17.587 17.587 0 0 1 128.467 66.992 Z M 140.137 50.098 L 161.279 50.098 L 161.279 36.621 L 140.137 36.621 L 140.137 50.098 Z" id="3" vector-effect="non-scaling-stroke"/><path d="M 197.217 54.737 L 192.48 16.797 A 30.92 30.92 0 0 1 192.407 16.247 Q 192.377 16.002 192.346 15.73 A 58.469 58.469 0 0 1 192.285 15.161 A 18.417 18.417 0 0 1 192.188 13.281 A 10.573 10.573 0 0 1 192.646 10.144 A 9.906 9.906 0 0 1 192.798 9.693 A 10.01 10.01 0 0 1 193.816 7.627 A 8.762 8.762 0 0 1 194.458 6.763 A 8.019 8.019 0 0 1 196.924 4.785 Q 198.34 4.053 200 4.053 Q 201.66 4.053 203.125 4.761 Q 204.59 5.469 205.688 6.714 A 9.013 9.013 0 0 1 207.319 9.413 A 10.284 10.284 0 0 1 207.397 9.619 A 10.095 10.095 0 0 1 207.998 12.712 A 11.608 11.608 0 0 1 208.008 13.184 Q 208.008 14.16 207.935 15.113 Q 207.861 16.065 207.764 16.944 L 202.832 54.737 L 197.217 54.737 Z M 192.041 71.729 Q 192.041 70.02 192.676 68.53 A 8.208 8.208 0 0 1 194.434 65.918 Q 195.557 64.795 197.046 64.136 A 7.812 7.812 0 0 1 200.244 63.477 A 7.812 7.812 0 0 1 203.442 64.136 A 8.554 8.554 0 0 1 206.055 65.918 Q 207.178 67.041 207.837 68.53 A 7.812 7.812 0 0 1 208.496 71.729 A 7.812 7.812 0 0 1 207.837 74.927 A 8.554 8.554 0 0 1 206.055 77.539 Q 204.932 78.662 203.418 79.297 A 8.125 8.125 0 0 1 200.244 79.932 Q 198.535 79.932 197.046 79.297 A 8.208 8.208 0 0 1 194.434 77.539 A 8.208 8.208 0 0 1 192.676 74.927 Q 192.041 73.438 192.041 71.729 Z" id="4" vector-effect="non-scaling-stroke"/></g></svg>