<svg width="199.065" height="61.963" viewBox="0 0 199.065 61.963" xmlns="http://www.w3.org/2000/svg"><g id="svgGroup" stroke-linecap="round" fill-rule="evenodd" font-size="9pt" stroke="#000" stroke-width="0.25mm" fill="#000" style="stroke:#000;stroke-width:0.25mm;fill:#000"><path d="M 177.757 20.935 L 183.645 39.066 L 184.112 39.066 L 189.813 21.776 L 191.028 15.888 L 199.065 15.888 L 188.505 46.262 Q 186.678 51.666 183.735 54.994 A 16.843 16.843 0 0 1 182.336 56.402 Q 178.411 59.907 171.215 61.963 L 170.561 61.869 A 16.695 16.695 0 0 1 167.133 57.582 A 19.923 19.923 0 0 1 166.449 56.262 L 166.729 55.327 Q 174.86 53.925 179.72 48.505 L 167.757 16.168 L 176.729 15.701 L 177.757 20.935 Z M 49.065 48.505 L 49.626 28.224 A 8.758 8.758 0 0 0 49.433 26.293 Q 48.704 23.084 45.234 23.084 A 7.849 7.849 0 0 0 42.277 23.698 Q 40.447 24.439 38.505 26.075 L 38.505 34.206 L 38.972 48.505 L 29.626 48.505 L 30.093 35.047 L 29.72 16.542 L 38.598 15.795 L 38.598 20.561 L 39.065 20.561 A 27.681 27.681 0 0 1 43.441 17.368 A 22.223 22.223 0 0 1 47.477 15.514 Q 52.804 15.514 55.561 17.944 A 7.658 7.658 0 0 1 58.016 22.316 Q 58.253 23.493 58.224 24.86 L 58.037 34.206 L 58.411 48.505 L 49.065 48.505 Z M 22.71 17.01 L 21.495 23.832 L 20.374 24.206 Q 17.449 22.321 14.885 21.747 A 9.944 9.944 0 0 0 12.71 21.496 Q 11.028 21.496 10.047 22.383 A 2.95 2.95 0 0 0 9.281 23.445 A 2.937 2.937 0 0 0 9.065 24.58 A 2.45 2.45 0 0 0 9.741 26.267 A 3.92 3.92 0 0 0 10.374 26.823 Q 11.467 27.603 13.603 28.514 A 42.28 42.28 0 0 0 14.486 28.879 A 47.528 47.528 0 0 1 16.451 29.713 Q 17.396 30.142 18.194 30.563 A 22.54 22.54 0 0 1 19.112 31.075 Q 20.935 32.15 22.243 33.972 A 6.731 6.731 0 0 1 23.327 36.445 Q 23.537 37.375 23.551 38.454 A 11.852 11.852 0 0 1 23.551 38.598 A 10.298 10.298 0 0 1 22.15 43.832 Q 19.099 48.886 11.58 49.228 A 24.539 24.539 0 0 1 10.467 49.253 A 26.283 26.283 0 0 1 3.682 48.327 A 33.173 33.173 0 0 1 0 47.103 L 1.121 39.813 L 1.963 39.253 Q 4.112 41.122 6.822 42.196 A 19.3 19.3 0 0 0 8.597 42.808 Q 9.49 43.065 10.284 43.179 A 8.509 8.509 0 0 0 11.495 43.271 A 6.603 6.603 0 0 0 12.631 43.18 Q 13.779 42.979 14.486 42.337 A 3.145 3.145 0 0 0 15.257 41.297 A 3.017 3.017 0 0 0 15.514 40.047 A 2.622 2.622 0 0 0 14.808 38.258 A 4.071 4.071 0 0 0 14.206 37.71 A 10.052 10.052 0 0 0 13.297 37.111 Q 12.265 36.501 10.715 35.826 A 42.173 42.173 0 0 0 10.093 35.561 A 57.473 57.473 0 0 1 8.173 34.722 Q 7.309 34.324 6.576 33.945 A 25.816 25.816 0 0 1 5.514 33.365 Q 1.028 30.841 1.028 25.982 A 11.176 11.176 0 0 1 1.549 22.491 A 9.102 9.102 0 0 1 4.439 18.271 A 12.165 12.165 0 0 1 9.888 15.707 A 17.052 17.052 0 0 1 13.178 15.374 A 32.738 32.738 0 0 1 13.465 15.373 Q 18.618 15.373 22.71 17.01 Z M 93.084 48.785 L 93.271 61.496 L 84.112 61.496 L 84.579 35.047 L 84.112 16.542 L 92.991 15.795 L 92.897 20.561 L 93.458 20.561 A 27.645 27.645 0 0 1 98.197 17.012 A 23.577 23.577 0 0 1 101.215 15.514 A 14.987 14.987 0 0 1 105.146 16 A 10.395 10.395 0 0 1 110.748 19.673 A 13.42 13.42 0 0 1 112.896 23.79 Q 113.527 25.697 113.804 28.029 A 33.1 33.1 0 0 1 114.019 31.916 A 24.317 24.317 0 0 1 113.505 37.065 Q 112.525 41.59 109.673 44.626 A 14.311 14.311 0 0 1 101.76 48.887 A 20.876 20.876 0 0 1 97.757 49.253 A 23.843 23.843 0 0 1 94.287 48.99 A 27.757 27.757 0 0 1 93.084 48.785 Z M 145.047 48.785 L 145.234 61.496 L 136.075 61.496 L 136.542 35.047 L 136.075 16.542 L 144.953 15.795 L 144.86 20.561 L 145.421 20.561 A 27.645 27.645 0 0 1 150.159 17.012 A 23.577 23.577 0 0 1 153.178 15.514 A 14.987 14.987 0 0 1 157.109 16 A 10.395 10.395 0 0 1 162.71 19.673 A 13.42 13.42 0 0 1 164.858 23.79 Q 165.49 25.697 165.766 28.029 A 33.1 33.1 0 0 1 165.981 31.916 A 24.317 24.317 0 0 1 165.468 37.065 Q 164.487 41.59 161.636 44.626 A 14.311 14.311 0 0 1 153.723 48.887 A 20.876 20.876 0 0 1 149.72 49.253 A 23.843 23.843 0 0 1 146.25 48.99 A 27.757 27.757 0 0 1 145.047 48.785 Z M 75.234 34.206 L 75.794 48.505 L 66.449 48.505 L 66.916 35.047 L 66.542 16.542 L 75.888 15.795 L 75.234 34.206 Z M 92.897 26.075 L 92.897 34.206 L 92.991 42.056 A 16.131 16.131 0 0 0 95.619 42.885 A 12.797 12.797 0 0 0 97.85 43.178 A 7.62 7.62 0 0 0 101.336 42.382 Q 105.234 40.337 105.234 33.038 A 24.113 24.113 0 0 0 105.018 29.655 Q 104.07 23.008 98.972 23.084 A 6.508 6.508 0 0 0 96.336 23.677 Q 94.66 24.416 92.897 26.075 Z M 144.86 26.075 L 144.86 34.206 L 144.953 42.056 A 16.131 16.131 0 0 0 147.582 42.885 A 12.797 12.797 0 0 0 149.813 43.178 A 7.62 7.62 0 0 0 153.299 42.382 Q 157.196 40.337 157.196 33.038 A 24.113 24.113 0 0 0 156.98 29.655 Q 156.033 23.008 150.935 23.084 A 6.508 6.508 0 0 0 148.299 23.677 Q 146.622 24.416 144.86 26.075 Z M 125.952 39.31 A 6.315 6.315 0 0 0 124.112 39.066 A 6.656 6.656 0 0 0 122.666 39.214 A 4.434 4.434 0 0 0 120.327 40.514 A 4.834 4.834 0 0 0 119.213 42.455 A 6.077 6.077 0 0 0 118.972 44.206 A 7.857 7.857 0 0 0 118.973 44.308 Q 118.983 45.073 119.142 45.721 A 4.152 4.152 0 0 0 120.234 47.71 A 3.956 3.956 0 0 0 120.538 47.985 Q 121.281 48.588 122.312 48.823 A 6.424 6.424 0 0 0 123.738 48.972 Q 125.981 48.972 127.336 47.57 Q 128.692 46.168 128.692 43.832 Q 128.692 40.145 125.952 39.31 Z M 72.793 0.143 A 6.381 6.381 0 0 0 71.402 0 A 6.428 6.428 0 0 0 70.779 0.03 A 4.696 4.696 0 0 0 67.757 1.449 A 4.796 4.796 0 0 0 66.614 3.359 A 5.87 5.87 0 0 0 66.355 5.14 A 7.857 7.857 0 0 0 66.356 5.243 Q 66.366 6.007 66.525 6.655 A 4.152 4.152 0 0 0 67.617 8.645 A 3.881 3.881 0 0 0 68.124 9.072 Q 68.818 9.562 69.746 9.764 A 6.679 6.679 0 0 0 71.168 9.907 A 6.295 6.295 0 0 0 72.379 9.796 A 4.304 4.304 0 0 0 74.766 8.505 Q 76.075 7.103 76.075 4.813 Q 76.075 2.524 74.86 1.262 Q 74.053 0.424 72.793 0.143 Z" vector-effect="non-scaling-stroke"/></g></svg>